<svg width="12" height="12" viewBox="0 0 12 12" fill="none" xmlns="http://www.w3.org/2000/svg">
<g clip-path="url(#clip0_4104_5587)">
<path d="M4.07578 9.12656C4.07578 9.17344 4.02187 9.21094 3.95391 9.21094C3.87656 9.21797 3.82266 9.18047 3.82266 9.12656C3.82266 9.07969 3.87656 9.04219 3.94453 9.04219C4.01484 9.03516 4.07578 9.07266 4.07578 9.12656ZM3.34688 9.02109C3.33047 9.06797 3.37734 9.12187 3.44766 9.13594C3.50859 9.15937 3.57891 9.13594 3.59297 9.08906C3.60703 9.04219 3.5625 8.98828 3.49219 8.96719C3.43125 8.95078 3.36328 8.97422 3.34688 9.02109ZM4.38281 8.98125C4.31484 8.99766 4.26797 9.04219 4.275 9.09609C4.28203 9.14297 4.34297 9.17344 4.41328 9.15703C4.48125 9.14063 4.52812 9.09609 4.52109 9.04922C4.51406 9.00469 4.45078 8.97422 4.38281 8.98125ZM5.925 0C2.67422 0 0.1875 2.46797 0.1875 5.71875C0.1875 8.31797 1.82344 10.5422 4.16016 11.325C4.46016 11.3789 4.56563 11.1938 4.56563 11.0414C4.56563 10.8961 4.55859 10.0945 4.55859 9.60234C4.55859 9.60234 2.91797 9.95391 2.57344 8.90391C2.57344 8.90391 2.30625 8.22187 1.92188 8.04609C1.92188 8.04609 1.38516 7.67812 1.95937 7.68516C1.95937 7.68516 2.54297 7.73203 2.86406 8.28984C3.37734 9.19453 4.2375 8.93438 4.57266 8.77969C4.62656 8.40469 4.77891 8.14453 4.94766 7.98984C3.6375 7.84453 2.31563 7.65469 2.31563 5.4C2.31563 4.75547 2.49375 4.43203 2.86875 4.01953C2.80781 3.86719 2.60859 3.23906 2.92969 2.42812C3.41953 2.27578 4.54688 3.06094 4.54688 3.06094C5.01562 2.92969 5.51953 2.86172 6.01875 2.86172C6.51797 2.86172 7.02188 2.92969 7.49063 3.06094C7.49063 3.06094 8.61797 2.27344 9.10781 2.42812C9.42891 3.24141 9.22969 3.86719 9.16875 4.01953C9.54375 4.43438 9.77344 4.75781 9.77344 5.4C9.77344 7.66172 8.39297 7.84219 7.08281 7.98984C7.29844 8.175 7.48125 8.52656 7.48125 9.07734C7.48125 9.86719 7.47422 10.8445 7.47422 11.0367C7.47422 11.1891 7.58203 11.3742 7.87969 11.3203C10.2234 10.5422 11.8125 8.31797 11.8125 5.71875C11.8125 2.46797 9.17578 0 5.925 0ZM2.46562 8.08359C2.43516 8.10703 2.44219 8.16094 2.48203 8.20547C2.51953 8.24297 2.57344 8.25938 2.60391 8.22891C2.63437 8.20547 2.62734 8.15156 2.5875 8.10703C2.55 8.06953 2.49609 8.05312 2.46562 8.08359ZM2.2125 7.89375C2.19609 7.92422 2.21953 7.96172 2.26641 7.98516C2.30391 8.00859 2.35078 8.00156 2.36719 7.96875C2.38359 7.93828 2.36016 7.90078 2.31328 7.87734C2.26641 7.86328 2.22891 7.87031 2.2125 7.89375ZM2.97188 8.72812C2.93438 8.75859 2.94844 8.82891 3.00234 8.87344C3.05625 8.92734 3.12422 8.93438 3.15469 8.89688C3.18516 8.86641 3.17109 8.79609 3.12422 8.75156C3.07266 8.69766 3.00234 8.69062 2.97188 8.72812ZM2.70469 8.38359C2.66719 8.40703 2.66719 8.46797 2.70469 8.52188C2.74219 8.57578 2.80547 8.59922 2.83594 8.57578C2.87344 8.54531 2.87344 8.48438 2.83594 8.43047C2.80313 8.37656 2.74219 8.35313 2.70469 8.38359Z" fill="#454545"/>
</g>
<defs>
<clipPath id="clip0_4104_5587">
<rect width="12" height="11.3345" fill="white"/>
</clipPath>
</defs>
</svg>
